<?xml version="1.0" encoding="utf-8"?>
<!-- Generator: Adobe Illustrator 27.2.0, SVG Export Plug-In . SVG Version: 6.00 Build 0)  -->
<svg version="1.1" id="레이어_1" xmlns="http://www.w3.org/2000/svg" xmlns:xlink="http://www.w3.org/1999/xlink" x="0px"
	 y="0px" viewBox="0 0 459.2 136.1" style="enable-background:new 0 0 459.2 136.1;" xml:space="preserve">
<style type="text/css">
	.st0{fill:#040000;}
</style>
<g>
	<path class="st0" d="M42.2,80.5h-3.8L11.9,14.3c-0.7-1.5-1.3-2.8-1.8-3.9S8.9,8.5,8.2,7.8C7.4,7.2,6.3,6.7,5.2,6.3
		C4.1,6,2.6,5.8,0.7,5.8v-4C1.8,1.9,3.6,2,6.1,2s5,0,7.8,0s5.2,0,7.6-0.1c2.4,0,4-0.1,5-0.2v4c-3.2,0-5.2,0.5-5.9,1.4
		s-0.4,3.1,1,6.4l20.7,53l11.3-25.1L42.2,14.4c-1.3-3.2-2.6-5.3-4-6.7S34.5,5.8,31,5.8v-4C32.4,1.9,34.2,2,36.5,2c2.4,0,4.8,0,7.4,0
		s4.9,0,7.2-0.1c2.2,0,3.8-0.1,4.7-0.3v4c-3,0-4.7,0.5-5.2,1.4s0,3.2,1.5,6.8l6.7,16.3l7.2-15.8c1.5-3.5,1.9-5.7,1.3-7
		c-0.6-1.1-2.7-1.7-6.6-1.7v-4c1,0.1,2.5,0.2,4.4,0.2c1.9,0,4,0,6.1,0c2.1,0,4,0,5.8-0.1c1.8,0,3.1-0.1,3.9-0.2v4
		c-2.6,0-4.5,1-5.8,2.9c-1.3,1.9-2.4,4-3.3,6l-10.3,23l11.4,28.2l18.2-50.5c0.7-2,1.2-3.7,1.4-4.9c0.2-1.2,0.1-2.1-0.3-2.9
		c-0.3-0.6-1-1-2-1.2c-1-0.2-2.4-0.3-4.2-0.4v-4c0.9,0.1,2.3,0.2,4.1,0.2c1.8,0,3.7,0,5.7,0c1.9,0,3.7,0,5.4-0.1
		c1.7,0,2.9-0.1,3.6-0.2v4c-1.3,0-2.3,0.1-3,0.4c-0.7,0.2-1.4,0.7-1.9,1.3c-0.5,0.7-0.9,1.6-1.4,2.9c-0.5,1.2-1,3-1.7,5L73.3,80.2
		h-3.7L56.2,48.4L42.2,80.5z"/>
	<path class="st0" d="M104.8,59.8h4.3c0.4,2.1,1,4.2,1.7,6.1c0.7,1.9,1.6,3.7,2.8,5.2c1.1,1.5,2.5,2.7,4.2,3.6
		c1.7,0.9,3.7,1.3,6.1,1.3c4.6,0,8.5-1.3,11.4-4s4.4-6,4.4-10c0-2.4-0.4-4.4-1.3-6.1c-0.9-1.7-2-3.3-3.4-4.6c-1.4-1.3-3-2.5-4.8-3.6
		c-1.8-1.1-3.7-2.3-5.6-3.4c-2-1.1-4-2.3-6.1-3.5c-2.1-1.2-3.9-2.8-5.6-4.4c-1.7-1.7-3-3.8-4.1-6c-1.1-2.3-1.6-5-1.6-8.1
		c0-3.7,0.6-6.9,1.7-9.6c1.2-2.8,2.8-5,4.8-6.9c2-1.7,4.4-3.1,7.3-4.1c2.8-0.9,5.8-1.4,9.1-1.4c1.2,0,2.3,0.1,3.4,0.2
		c1.1,0.1,2.1,0.3,3.1,0.4c1,0.1,2,0.3,3,0.5c1,0.2,2.1,0.4,3.2,0.5l1.9,14.9h-4.3c-0.6-4-1.8-7.1-3.7-9c-1.8-1.9-4.5-3-8.2-3
		c-4.6,0-8.1,1.3-10.4,3.9c-2.3,2.6-3.4,5.7-3.4,9.5c0,2.4,0.5,4.5,1.5,6.3c1,1.8,2.3,3.6,3.9,5c1.6,1.5,3.4,3,5.4,4.2
		c2,1.2,4.1,2.4,6.2,3.4c2,1.1,4,2.3,6,3.4c2,1.2,3.8,2.6,5.3,4.1c1.6,1.5,2.9,3.4,3.8,5.5c1,2.1,1.5,4.6,1.5,7.6
		c0,3.8-0.7,7.1-2.2,9.8c-1.5,2.9-3.4,5.1-5.7,7c-2.3,1.9-5,3.4-8.1,4.3c-3,0.9-6,1.4-9.2,1.4c-3.1,0-5.8-0.3-8.4-0.8
		c-2.5-0.5-5-1.4-7.7-2.7L104.8,59.8z"/>
	<path class="st0" d="M225.3,22.3h-4.3c-1.2-6.2-3.7-10.7-7.7-13.5s-8.9-4.1-14.9-4.1c-4.9,0-9.3,1-13,3.1c-3.8,2-7,4.7-9.6,8
		c-2.5,3.4-4.5,7.1-5.8,11.3c-1.3,4.2-2,8.5-2,12.8c0,4.7,0.7,9.2,2.1,13.5c1.4,4.3,3.4,8.2,6.1,11.5c2.7,3.4,5.9,6,9.8,8
		c3.8,2,8.3,3,13.3,3c2.3,0,4.2-0.2,5.9-0.5c1.7-0.3,3.1-0.7,4.3-1.1c1.2-0.5,2.2-0.9,2.9-1.4c0.8-0.5,1.3-0.9,1.7-1.2V55.7
		c0-3.3-0.7-5.3-2.2-6c-1.4-0.8-3.9-1.1-7.5-1.1v-3.9c1.7,0.1,3.7,0.1,6,0.1c2.4,0,4.8,0,7.3,0c2.5,0,4.8,0,7.2-0.1
		c2.3,0,4.2-0.1,5.7-0.2v3.8c-2.5,0-4.3,0.4-5.5,1.2s-1.8,2.9-1.8,6.1v13.6l1.6,1.7v2.8c-4.7,2.1-9.3,3.7-13.5,4.8
		c-4.2,1-8.7,1.6-13.3,1.6c-5.9,0-11.5-1-16.4-3.1c-4.9-2-9.2-4.9-12.7-8.5s-6.3-7.8-8.3-12.7c-1.9-4.8-2.9-9.9-2.9-15.5
		c0-5.7,1-11.1,3-16s4.8-9.2,8.4-12.8s7.6-6.4,12.4-8.5c4.7-2,9.9-3.2,15.3-3.2c4.7,0,9.3,0.5,13.4,1.6c4.2,1.1,8.5,2.5,12.9,4.1
		L225.3,22.3z"/>
	<path class="st0" d="M252.5,134.6c-1.4-0.8-2.5-1.5-3.1-2.3c-0.3-0.3-0.6-0.6-0.8-0.7c-0.2-0.2-0.4-0.2-0.6-0.2
		c-0.5,0-1,0.4-1.4,1.3c-0.4,0.9-0.8,1.7-1,2.7h-1.1l3.8-15.4h1.1c-0.2,0.9-0.2,1.8-0.2,2.6c0,2,0.4,3.9,1.2,5.7
		c0.8,1.7,1.9,3.2,3.2,4.3c1.4,1,2.8,1.6,4.4,1.6c2.6,0,4.7-0.6,6.1-1.7c1.4-1.1,2.1-2.8,2.1-5c0-1.3-0.3-2.4-1-3.2
		c-0.7-0.8-1.6-1.6-2.9-2.5l-5.5-3.5c-1.9-1.1-3.3-2.4-4.2-3.7c-0.9-1.3-1.3-3-1.3-5.1c0-3.4,0.9-5.9,2.9-7.7
		c1.9-1.7,4.4-2.6,7.6-2.6c1.1,0,2.3,0.3,3.4,0.9c1.1,0.6,2,1.2,2.7,1.8c0.3,0.3,0.6,0.5,0.8,0.6s0.4,0.2,0.6,0.2c0.5,0,1-0.3,1.5-1
		c0.4-0.7,0.8-1.4,0.9-2.1h1.1l-2.7,12.6H269c0.1-1.5-0.2-3.3-0.8-5c-0.6-1.8-1.6-3.3-2.8-4.5c-1.2-1.2-2.5-1.8-4-1.8
		c-1.6,0-3,0.3-4.1,0.9s-1.9,1.4-2.5,2.4c-0.5,1-0.8,2-0.8,3.2c0,1.5,0.4,2.8,1.3,3.6c0.9,0.9,2,1.7,3.5,2.7l4.5,2.7
		c1.5,0.9,2.6,1.7,3.4,2.5c0.8,0.7,1.5,1.6,1.9,2.7c0.5,1,0.7,2.3,0.7,3.8c0,3.3-1,5.7-3,7.7c-2,1.8-4.9,2.9-8.6,2.9
		C255.5,135.9,253.9,135.4,252.5,134.6z"/>
	<path class="st0" d="M272.1,133.4h3.6c0.9,0,1.4-0.4,1.6-1.3l7.7-28.8c0.1-0.3,0.1-0.4,0.1-0.6c0-0.5-0.3-0.7-1-0.7h-3.6l0.4-1.5
		h26.3l-2.2,11.1h-1.2c0-0.1,0.1-0.4,0.1-0.8c0-0.4,0-0.9,0-1.5c0-2.8-0.4-4.6-1.3-5.6c-0.9-1-2.1-1.5-3.8-1.5h-7.9
		c-0.9,0-1.4,0.4-1.6,1.3l-3.4,13h5.1c1.2,0,2.2-0.3,3-1s1.3-1.5,1.7-2.5c0.4-0.9,0.7-2,1.1-3.4h1.2l-4.1,15.7h-1.2
		c0.3-1.4,0.5-2.7,0.5-3.6c0-1.1-0.2-2-0.6-2.7c-0.4-0.6-1.2-0.9-2.2-0.9h-4.8l-3.8,14.2c-0.1,0.3-0.1,0.4-0.1,0.5
		c0,0.5,0.3,0.8,1,0.8h8.9c0.8,0,1.8-0.2,2.9-0.6c1.1-0.4,2.1-1,3-1.9c0.9-0.9,1.7-2,2.4-3.3c0.7-1.3,1.3-2.5,1.8-3.6
		c0.4-1,0.7-1.7,0.8-2h1.1l-4,13h-27.8L272.1,133.4z"/>
	<path class="st0" d="M328.5,134.4c-0.8-0.7-1.2-1.8-1.2-3.5c0-0.7,0.1-1.5,0.2-2.3c0.1-0.7,0.3-1.4,0.4-2c0.2-0.6,0.3-1,0.3-1.2
		c0.5-1.7,0.8-3.1,0.8-3.9c0-1.2-0.3-2.3-1-2.9c-0.7-0.6-1.5-0.9-2.6-0.9h-6.5l-3.8,14.4c0,0.1,0,0.3,0,0.5c0,0.5,0.3,0.8,0.9,0.8
		h4.7l-0.4,1.5h-15.2l0.4-1.5h3.6c0.9,0,1.4-0.4,1.6-1.3l7.7-28.8c0.1-0.3,0.1-0.4,0.1-0.6c0-0.5-0.3-0.7-1-0.7h-3.6l0.4-1.5h14.8
		c2.7,0,4.8,0.6,6.2,1.9c1.5,1.3,2.2,3.3,2.2,5.8c0,1.3-0.4,2.7-1.3,3.9c-0.9,1.2-2,2.3-3.4,3.2c-1.4,0.9-2.9,1.4-4.4,1.7v0.2
		c2.9,1.4,4.3,3.8,4.3,7.1c0,0.8-0.2,2.1-0.6,4c-0.3,1.5-0.5,2.7-0.5,3.2c0,0.4,0.1,0.8,0.3,1.1s0.5,0.4,1,0.4
		c1.2,0,2.1-0.6,2.7-1.7c0.7-1.1,1.2-2.6,1.7-4.2l1.2,0.3c-0.4,1.4-0.8,2.7-1.3,3.7c-0.4,1-1.1,2-2.1,3c-0.9,0.9-2.2,1.4-3.7,1.4
		C330.4,135.6,329.4,135.1,328.5,134.4z M325.2,116.1c2.4,0,4.3-0.8,5.7-2.4c1.4-1.5,2.1-3.8,2.1-6.7c0-1.7-0.4-3-1.2-3.9
		c-0.8-0.8-2-1.3-3.6-1.2h-3.8c-0.9,0-1.4,0.4-1.6,1.3l-3.4,12.8H325.2z"/>
	<path class="st0" d="M349.1,104.1c-0.1-0.8-0.3-1.3-0.7-1.6c-0.4-0.3-0.9-0.4-1.6-0.4H344l0.4-1.5h14.5l-0.4,1.5h-3.3
		c-0.7,0-1.2,0.2-1.4,0.6c-0.2,0.4-0.4,0.9-0.4,1.7v24l12.4-19.2c0.7-1,1.2-1.9,1.5-2.8c0.3-0.8,0.5-1.5,0.5-2.3
		c0-0.6-0.2-1.1-0.5-1.4c-0.4-0.4-0.9-0.5-1.5-0.5h-2.1l0.4-1.5h14.1l-0.4,1.5H376c-1.2,0-2.3,0.4-3.3,1c-1,0.7-1.8,1.5-2.4,2.5
		L350.5,136h-1.2L349.1,104.1z"/>
	<path class="st0" d="M373.1,133.3h3.6c0.9,0,1.4-0.4,1.6-1.3l7.7-28.8c0.1-0.3,0.1-0.4,0.1-0.6c0-0.5-0.3-0.7-1-0.7h-3.6l0.4-1.5
		H396l-0.4,1.5H392c-0.9,0-1.4,0.4-1.6,1.3l-7.7,28.8c-0.1,0.3-0.1,0.4-0.1,0.5c0,0.5,0.3,0.8,1,0.8h3.6l-0.4,1.5h-14.1L373.1,133.3
		z"/>
	<path class="st0" d="M402,134.3c-1.5-0.9-2.8-2.4-3.8-4.4c-1-1.9-1.5-4.4-1.5-7.3c0-3.7,0.9-7.4,2.6-11c1.8-3.6,4-6.6,6.9-8.8
		c2.8-2.3,5.7-3.4,8.7-3.4c1.2,0,2.2,0.2,3.1,0.7c0.9,0.5,1.6,0.9,2.2,1.5l0.9,0.9c0.3,0.3,0.6,0.5,0.7,0.6c0.2,0.1,0.4,0.2,0.6,0.2
		c0.6,0,1.1-0.4,1.4-1.2c0.3-0.8,0.6-1.5,0.7-2.4h1.1l-3,14.8h-1.1c0-0.6,0-1.6,0-3.1c0-1.1-0.2-2.5-0.5-4.1s-0.8-3-1.6-4
		c-1.2-1.6-2.8-2.5-4.8-2.5c-1.9,0-3.6,0.6-5.1,1.7c-1.5,1.2-3.1,3.2-4.5,6c-1,2-1.9,4.5-2.6,7.5c-0.7,3-1.1,5.9-1.1,9
		c0,2.5,0.3,4.4,0.9,5.6c0.6,1.3,1.4,2.1,2.3,2.6s1.9,0.6,3.1,0.6c1.8,0,3.5-0.5,5.1-1.5c1.6-1,3.1-2.4,4.3-4.1
		c1.2-1.6,2.2-3.5,2.9-5.4l1.5,0.5c-1.1,3.4-2.9,6.2-5.4,8.6c-2.4,2.4-5.5,3.5-9.3,3.5C405.2,135.8,403.6,135.2,402,134.3z"/>
	<path class="st0" d="M424.1,133.3h3.6c0.9,0,1.4-0.4,1.6-1.3l7.7-28.8c0.1-0.3,0.1-0.4,0.1-0.6c0-0.5-0.3-0.7-1-0.7h-3.6l0.4-1.5
		h26.3l-2.2,11.1h-1.2c0-0.1,0.1-0.4,0.1-0.8c0-0.4,0-0.9,0-1.5c0-2.8-0.4-4.6-1.3-5.6c-0.9-1-2.1-1.5-3.8-1.5h-7.9
		c-0.9,0-1.4,0.4-1.6,1.3l-3.4,13h5.1c1.2,0,2.2-0.3,3-1c0.8-0.7,1.3-1.5,1.7-2.5c0.4-0.9,0.7-2,1.1-3.4h1.2l-4.1,15.7h-1.2
		c0.3-1.4,0.5-2.7,0.5-3.7c0-1.1-0.2-2-0.6-2.7c-0.4-0.6-1.2-0.9-2.2-0.9h-4.8l-3.8,14.2c-0.1,0.3-0.1,0.4-0.1,0.5
		c0,0.5,0.3,0.8,1,0.8h8.9c0.8,0,1.8-0.2,2.9-0.6c1.1-0.4,2.1-1,3-1.9c0.9-0.9,1.7-2,2.4-3.3c0.7-1.3,1.3-2.5,1.8-3.6
		c0.4-1,0.7-1.7,0.8-2h1.1l-4,13h-27.8L424.1,133.3z"/>
	<path class="st0" d="M0.4,133.7H4c0.9,0,1.4-0.4,1.6-1.3l7.7-28.8c0.1-0.3,0.1-0.4,0.1-0.6c0-0.5-0.3-0.7-1-0.7H8.8l0.4-1.5h14.1
		l-0.4,1.5h-3.6c-0.9,0-1.4,0.4-1.6,1.3L10,132.4c-0.1,0.3-0.1,0.4-0.1,0.5c0,0.5,0.3,0.8,1,0.8h3.6l-0.4,1.5H0L0.4,133.7z"/>
	<path class="st0" d="M25,133.7h4.7c0.8,0,1.3-0.4,1.6-1.3l7.7-28.8c0.1-0.3,0.1-0.5,0.1-0.6c0-0.5-0.3-0.7-0.9-0.7h-1.6
		c-1.1,0-2.1,0.3-3.1,0.8c-1,0.5-1.8,1.1-2.4,1.7c-0.9,0.9-1.7,2-2.4,3.3c-0.7,1.3-1.3,2.6-1.7,3.7c-0.4,1.1-0.6,1.7-0.6,1.8h-1.2
		l3.8-13H55l-3,13h-1.2c0-0.1,0.1-0.4,0.2-0.9c0.1-0.4,0.2-1,0.3-1.8c0.1-0.8,0.1-1.5,0.1-2.4c0-2.4-0.5-4.1-1.4-5
		c-1-0.9-2.1-1.4-3.3-1.4h-1.6c-0.9,0-1.5,0.4-1.7,1.3l-7.7,28.8c0,0.1,0,0.3,0,0.5c0,0.3,0.1,0.4,0.2,0.6c0.1,0.1,0.4,0.2,0.7,0.2
		h4.7l-0.4,1.5H24.6L25,133.7z"/>
	<path class="st0" d="M71.3,133.6H76c0.8,0,1.3-0.4,1.6-1.3l7.7-28.8c0.1-0.3,0.1-0.5,0.1-0.6c0-0.5-0.3-0.7-0.9-0.7h-1.6
		c-1.1,0-2.1,0.3-3.1,0.8c-1,0.5-1.8,1.1-2.4,1.7c-0.9,0.9-1.7,2-2.4,3.3c-0.7,1.3-1.3,2.6-1.7,3.7c-0.4,1.1-0.6,1.7-0.6,1.8h-1.2
		l3.8-13h26.1l-3,13h-1.2c0-0.1,0.1-0.4,0.2-0.9c0.1-0.4,0.2-1,0.3-1.8c0.1-0.8,0.1-1.5,0.1-2.4c0-2.4-0.5-4.1-1.4-5
		c-1-0.9-2.1-1.4-3.3-1.4h-1.6c-0.9,0-1.5,0.4-1.7,1.3l-7.7,28.8c0,0.1,0,0.3,0,0.5c0,0.3,0.1,0.4,0.2,0.6c0.1,0.1,0.4,0.2,0.7,0.2
		h4.7l-0.4,1.5H70.9L71.3,133.6z"/>
	<path class="st0" d="M107.9,134.3c-1.5-1.1-2.7-2.8-3.5-4.7c-0.8-1.9-1.2-4.1-1.2-6.4c0-4.2,0.9-8.1,2.6-11.7c1.8-3.6,4-6.4,7-8.5
		c2.8-2.1,5.7-3.2,8.7-3.2c2,0,3.8,0.6,5.3,1.7c1.5,1.2,2.7,2.8,3.5,4.7c0.8,1.9,1.2,4.1,1.2,6.4c0,4.2-0.9,8.1-2.6,11.7
		c-1.8,3.6-4,6.4-7,8.5c-2.8,2-5.7,3.2-8.7,3.2C111.3,136.1,109.5,135.4,107.9,134.3z M120.4,131c1.8-2.3,3.3-4.9,4.3-8
		c0.8-2.5,1.4-4.8,1.7-7.2c0.3-2.4,0.4-4.3,0.4-6c0-2.8-0.5-4.9-1.5-6.4c-1-1.4-2.5-2.3-4.3-2.1c-2.7,0-4.9,1.1-6.8,3.4
		c-1.8,2.3-3.3,4.9-4.3,8c-0.8,2.5-1.4,4.8-1.7,7.2c-0.3,2.4-0.4,4.3-0.4,6c0,2.8,0.5,4.9,1.5,6.4c1,1.4,2.5,2.3,4.3,2.1
		C116.4,134.4,118.6,133.3,120.4,131z"/>
	<path class="st0" d="M138.1,133.6h4.7c0.8,0,1.3-0.4,1.6-1.3l7.7-28.8c0.1-0.3,0.1-0.5,0.1-0.6c0-0.5-0.3-0.7-0.9-0.7h-1.6
		c-1.1,0-2.1,0.3-3.1,0.8c-1,0.5-1.8,1.1-2.4,1.7c-0.9,0.9-1.7,2-2.4,3.3c-0.7,1.3-1.3,2.6-1.7,3.7s-0.6,1.7-0.6,1.8h-1.2l3.8-13
		h26.1l-3,13h-1.2c0-0.1,0.1-0.4,0.2-0.9c0.1-0.4,0.2-1,0.3-1.8c0.1-0.8,0.1-1.5,0.1-2.4c0-2.4-0.5-4.1-1.4-5
		c-1-0.9-2.1-1.4-3.3-1.4h-1.6c-0.9,0-1.5,0.4-1.7,1.3l-7.7,28.8c0,0.1,0,0.3,0,0.5c0,0.3,0.1,0.4,0.2,0.6c0.1,0.1,0.4,0.2,0.7,0.2
		h4.7l-0.4,1.5h-16.3L138.1,133.6z"/>
	<path class="st0" d="M160.5,133.5h1.8c1.3,0,2.5-0.3,3.5-1c1-0.7,1.8-1.5,2.4-2.5l19.6-29.5h1.1v30.8c0.1,0.8,0.3,1.3,0.7,1.6
		s0.9,0.4,1.6,0.4h2.7l-0.4,1.5h-14.1l0.4-1.5h2.9c0.7,0,1.2-0.1,1.5-0.4c0.3-0.3,0.5-0.9,0.5-1.8v-8.1h-10l-3.2,4.8
		c-1.1,1.5-1.6,2.9-1.6,3.8c0,1.1,0.6,1.6,1.9,1.6h2.6l-0.4,1.5h-13.9L160.5,133.5z M175.8,121.7h9v-13.4L175.8,121.7z"/>
	<path class="st0" d="M196.8,133.5h3.6c0.9,0,1.4-0.4,1.6-1.3l7.7-28.8c0.1-0.3,0.1-0.4,0.1-0.6c0-0.5-0.3-0.7-1-0.7h-3.6l0.4-1.5
		h14.1l-0.4,1.5h-3.6c-0.9,0-1.4,0.4-1.6,1.3l-7.7,28.8c-0.1,0.3-0.1,0.4-0.1,0.5c0,0.5,0.3,0.8,1,0.8h8.9c0.8,0,1.8-0.2,2.9-0.6
		c1.1-0.4,2.1-1,3-1.9c0.9-0.9,1.7-2,2.4-3.3c0.7-1.3,1.3-2.5,1.8-3.6c0.4-1,0.7-1.7,0.8-2h1.1l-4,13h-27.8L196.8,133.5z"/>
</g>
</svg>
