<?xml version="1.0" encoding="utf-8"?>
<!-- Generator: Adobe Illustrator 27.2.0, SVG Export Plug-In . SVG Version: 6.00 Build 0)  -->
<svg version="1.1" id="레이어_1" xmlns="http://www.w3.org/2000/svg" xmlns:xlink="http://www.w3.org/1999/xlink" x="0px"
	 y="0px" viewBox="0 0 663.3 184.3" style="enable-background:new 0 0 663.3 184.3;" xml:space="preserve">
<g>
	<g>
		<path d="M241.8,104.3H238l-26.3-64.6c-0.7-1.5-1.3-2.7-1.8-3.8s-1.2-1.9-1.9-2.6c-0.8-0.6-1.8-1.1-2.9-1.4
			c-1.1-0.3-2.6-0.5-4.5-0.5v-3.9c1.1,0.1,2.9,0.2,5.4,0.2s5,0,7.7,0s5.2,0,7.5-0.1c2.4,0,4-0.1,5-0.2v3.9c-3.2,0-5.2,0.5-5.9,1.4
			c-0.7,0.9-0.4,3,1,6.3l20.5,51.8L253,66.3l-11.2-26.5c-1.3-3.1-2.6-5.2-4-6.5s-3.7-1.9-7.1-1.9v-3.9c1.3,0.1,3.1,0.2,5.4,0.2
			c2.4,0,4.8,0,7.3,0s4.9,0,7.1-0.1c2.2,0,3.8-0.1,4.7-0.3v3.9c-3,0-4.7,0.5-5.2,1.4s0,3.1,1.5,6.6l6.6,15.9l7.1-15.4
			c1.5-3.4,1.9-5.6,1.3-6.8c-0.6-1.1-2.7-1.7-6.5-1.7v-3.9c1,0.1,2.5,0.2,4.4,0.2s4,0,6.1,0s4,0,5.8-0.1c1.8,0,3.1-0.1,3.9-0.2v3.9
			c-2.6,0-4.5,1-5.8,2.8c-1.3,1.9-2.4,3.9-3.3,5.9l-10.2,22.5l11.3,27.5l18.1-49.3c0.7-2,1.2-3.6,1.4-4.8c0.2-1.2,0.1-2.1-0.3-2.8
			c-0.3-0.6-1-1-2-1.2s-2.4-0.3-4.2-0.4v-3.9c0.9,0.1,2.3,0.2,4.1,0.2c1.8,0,3.7,0,5.7,0c1.9,0,3.7,0,5.4-0.1c1.7,0,2.9-0.1,3.6-0.2
			v3.9c-1.3,0-2.3,0.1-3,0.4c-0.7,0.2-1.4,0.7-1.9,1.3c-0.5,0.7-0.9,1.6-1.4,2.8s-1,2.9-1.7,4.9L272.6,104h-3.7l-13.2-31
			L241.8,104.3z"/>
		<path d="M303.9,84.1h4.3c0.4,2.1,1,4.1,1.7,6s1.6,3.6,2.8,5.1c1.1,1.5,2.5,2.6,4.2,3.5s3.7,1.3,6.1,1.3c4.6,0,8.4-1.3,11.3-3.9
			c2.9-2.6,4.4-5.9,4.4-9.8c0-2.3-0.4-4.3-1.3-6c-0.9-1.7-2-3.2-3.4-4.5s-3-2.4-4.8-3.5s-3.7-2.2-5.6-3.3c-2-1.1-4-2.2-6.1-3.4
			s-3.9-2.7-5.6-4.3c-1.7-1.7-3-3.7-4.1-5.9s-1.6-4.9-1.6-7.9c0-3.6,0.6-6.7,1.7-9.4c1.2-2.7,2.8-4.9,4.8-6.7c2-1.7,4.4-3,7.2-4
			c2.8-0.9,5.8-1.4,9-1.4c1.2,0,2.3,0.1,3.4,0.2c1.1,0.1,2.1,0.3,3.1,0.4c1,0.1,2,0.3,3,0.5s2.1,0.4,3.2,0.5l1.9,14.6h-4.3
			c-0.6-3.9-1.8-6.9-3.7-8.8c-1.8-1.9-4.5-2.9-8.1-2.9c-4.6,0-8,1.3-10.3,3.8s-3.4,5.6-3.4,9.3c0,2.3,0.5,4.4,1.5,6.2
			s2.3,3.5,3.9,4.9c1.6,1.5,3.4,2.9,5.4,4.1c2,1.2,4.1,2.3,6.2,3.3c2,1.1,4,2.2,6,3.3c2,1.2,3.8,2.5,5.3,4c1.6,1.5,2.9,3.3,3.8,5.4
			c1,2.1,1.5,4.5,1.5,7.4c0,3.7-0.7,6.9-2.2,9.6c-1.5,2.8-3.4,5-5.7,6.8c-2.3,1.9-5,3.3-8,4.2s-6,1.4-9.1,1.4s-5.8-0.3-8.3-0.8
			s-5-1.4-7.6-2.6L303.9,84.1z"/>
		<path d="M423.4,47.5h-4.3c-1.2-6.1-3.7-10.5-7.6-13.2c-3.9-2.7-8.8-4-14.8-4c-4.9,0-9.2,1-12.9,3c-3.8,2-6.9,4.6-9.5,7.8
			c-2.5,3.3-4.5,6.9-5.8,11s-2,8.3-2,12.5c0,4.6,0.7,9,2.1,13.2c1.4,4.2,3.4,8,6.1,11.2c2.7,3.3,5.9,5.9,9.7,7.8
			c3.8,2,8.2,2.9,13.2,2.9c2.3,0,4.2-0.2,5.9-0.5s3.1-0.7,4.3-1.1c1.2-0.5,2.2-0.9,2.9-1.4c0.8-0.5,1.3-0.9,1.7-1.2V80.1
			c0-3.2-0.7-5.2-2.2-5.9c-1.4-0.8-3.9-1.1-7.4-1.1v-3.8c1.7,0.1,3.7,0.1,6,0.1c2.4,0,4.8,0,7.2,0c2.5,0,4.8,0,7.1-0.1
			c2.3,0,4.2-0.1,5.7-0.2v3.7c-2.5,0-4.3,0.4-5.5,1.2s-1.8,2.8-1.8,6v13.3l1.6,1.7v2.7c-4.7,2.1-9.2,3.6-13.4,4.7
			c-4.2,1-8.6,1.6-13.2,1.6c-5.9,0-11.4-1-16.3-3c-4.9-2-9.1-4.8-12.6-8.3s-6.3-7.6-8.2-12.4c-1.9-4.7-2.9-9.7-2.9-15.1
			c0-5.6,1-10.8,3-15.6s4.8-9,8.3-12.5s7.5-6.3,12.3-8.3c4.7-2,9.8-3.1,15.2-3.1c4.7,0,9.2,0.5,13.3,1.6c4.2,1.1,8.4,2.4,12.8,4
			L423.4,47.5z"/>
		<path d="M450.4,157.2c-1.4-0.8-2.5-1.5-3.1-2.2c-0.3-0.3-0.6-0.6-0.8-0.7c-0.2-0.2-0.4-0.2-0.6-0.2c-0.5,0-1,0.4-1.4,1.3
			c-0.4,0.9-0.8,1.7-1,2.6h-1.1l3.8-15h1.1c-0.2,0.9-0.2,1.8-0.2,2.5c0,2,0.4,3.8,1.2,5.6c0.8,1.7,1.9,3.1,3.2,4.2
			c1.4,1,2.8,1.6,4.4,1.6c2.6,0,4.7-0.6,6.1-1.7c1.4-1.1,2.1-2.7,2.1-4.9c0-1.3-0.3-2.3-1-3.1s-1.6-1.6-2.9-2.4l-5.5-3.4
			c-1.9-1.1-3.3-2.3-4.2-3.6s-1.3-2.9-1.3-5c0-3.3,0.9-5.8,2.9-7.5c1.9-1.7,4.4-2.5,7.5-2.5c1.1,0,2.3,0.3,3.4,0.9
			c1.1,0.6,2,1.2,2.7,1.8c0.3,0.3,0.6,0.5,0.8,0.6s0.4,0.2,0.6,0.2c0.5,0,1-0.3,1.5-1c0.4-0.7,0.8-1.4,0.9-2.1h1.1l-2.7,12.3h-1.1
			c0.1-1.5-0.2-3.2-0.8-4.9c-0.6-1.8-1.6-3.2-2.8-4.4s-2.5-1.8-4-1.8c-1.6,0-3,0.3-4.1,0.9c-1.1,0.6-1.9,1.4-2.5,2.3
			c-0.5,1-0.8,2-0.8,3.1c0,1.5,0.4,2.7,1.3,3.5c0.9,0.9,2,1.7,3.5,2.6l4.5,2.6c1.5,0.9,2.6,1.7,3.4,2.4c0.8,0.7,1.5,1.6,1.9,2.6
			c0.5,1,0.7,2.2,0.7,3.7c0,3.2-1,5.6-3,7.5c-2,1.8-4.9,2.8-8.5,2.8C453.4,158.4,451.8,158,450.4,157.2z"/>
		<path d="M469.9,156h3.6c0.9,0,1.4-0.4,1.6-1.3l7.6-28.1c0.1-0.3,0.1-0.4,0.1-0.6c0-0.5-0.3-0.7-1-0.7h-3.6l0.4-1.5h26.1l-2.2,10.8
			h-1.2c0-0.1,0.1-0.4,0.1-0.8c0-0.4,0-0.9,0-1.5c0-2.7-0.4-4.5-1.3-5.5c-0.9-1-2.1-1.5-3.8-1.5h-7.8c-0.9,0-1.4,0.4-1.6,1.3
			l-3.4,12.7h5.1c1.2,0,2.2-0.3,3-1s1.3-1.5,1.7-2.4s0.7-2,1.1-3.3h1.2l-4.1,15.3h-1.2c0.3-1.4,0.5-2.6,0.5-3.5c0-1.1-0.2-2-0.6-2.6
			c-0.4-0.6-1.2-0.9-2.2-0.9h-4.8l-3.8,13.9c-0.1,0.3-0.1,0.4-0.1,0.5c0,0.5,0.3,0.8,1,0.8h8.8c0.8,0,1.8-0.2,2.9-0.6
			c1.1-0.4,2.1-1,3-1.9s1.7-2,2.4-3.2c0.7-1.3,1.3-2.4,1.8-3.5c0.4-1,0.7-1.7,0.8-2h1.1l-4,12.7h-27.6L469.9,156z"/>
		<path d="M525.8,157c-0.8-0.7-1.2-1.8-1.2-3.4c0-0.7,0.1-1.5,0.2-2.2c0.1-0.7,0.3-1.4,0.4-2c0.2-0.6,0.3-1,0.3-1.2
			c0.5-1.7,0.8-3,0.8-3.8c0-1.2-0.3-2.2-1-2.8c-0.7-0.6-1.5-0.9-2.6-0.9h-6.4l-3.8,14.1c0,0.1,0,0.3,0,0.5c0,0.5,0.3,0.8,0.9,0.8
			h4.7l-0.4,1.5h-15.1l0.4-1.5h3.6c0.9,0,1.4-0.4,1.6-1.3l7.6-28.1c0.1-0.3,0.1-0.4,0.1-0.6c0-0.5-0.3-0.7-1-0.7h-3.6l0.4-1.5h14.7
			c2.7,0,4.8,0.6,6.2,1.9c1.5,1.3,2.2,3.2,2.2,5.7c0,1.3-0.4,2.6-1.3,3.8c-0.9,1.2-2,2.2-3.4,3.1s-2.9,1.4-4.4,1.7v0.2
			c2.9,1.4,4.3,3.7,4.3,6.9c0,0.8-0.2,2.1-0.6,3.9c-0.3,1.5-0.5,2.6-0.5,3.1c0,0.4,0.1,0.8,0.3,1.1c0.2,0.3,0.5,0.4,1,0.4
			c1.2,0,2.1-0.6,2.7-1.7c0.7-1.1,1.2-2.5,1.7-4.1l1.2,0.3c-0.4,1.4-0.8,2.6-1.3,3.6c-0.4,1-1.1,2-2.1,2.9c-0.9,0.9-2.2,1.4-3.7,1.4
			C527.7,158.1,526.7,157.7,525.8,157z M522.5,139.1c2.4,0,4.3-0.8,5.7-2.3s2.1-3.7,2.1-6.5c0-1.7-0.4-2.9-1.2-3.8
			c-0.8-0.8-2-1.3-3.6-1.2h-3.8c-0.9,0-1.4,0.4-1.6,1.3l-3.4,12.5H522.5z"/>
		<path d="M546.3,127.4c-0.1-0.8-0.3-1.3-0.7-1.6s-0.9-0.4-1.6-0.4h-2.8l0.4-1.5H556l-0.4,1.5h-3.3c-0.7,0-1.2,0.2-1.4,0.6
			c-0.2,0.4-0.4,0.9-0.4,1.7v23.4l12.3-18.8c0.7-1,1.2-1.9,1.5-2.7c0.3-0.8,0.5-1.5,0.5-2.2c0-0.6-0.2-1.1-0.5-1.4
			c-0.4-0.4-0.9-0.5-1.5-0.5h-2.1l0.4-1.5h14l-0.4,1.5h-1.8c-1.2,0-2.3,0.4-3.3,1c-1,0.7-1.8,1.5-2.4,2.4l-19.6,29.6h-1.2
			L546.3,127.4z"/>
		<path d="M570.1,155.9h3.6c0.9,0,1.4-0.4,1.6-1.3l7.6-28.1c0.1-0.3,0.1-0.4,0.1-0.6c0-0.5-0.3-0.7-1-0.7h-3.6l0.4-1.5h14l-0.4,1.5
			h-3.6c-0.9,0-1.4,0.4-1.6,1.3l-7.6,28.1c-0.1,0.3-0.1,0.4-0.1,0.5c0,0.5,0.3,0.8,1,0.8h3.6l-0.4,1.5h-14L570.1,155.9z"/>
		<path d="M598.7,156.9c-1.5-0.9-2.8-2.3-3.8-4.3c-1-1.9-1.5-4.3-1.5-7.1c0-3.6,0.9-7.2,2.6-10.7c1.8-3.5,4-6.4,6.8-8.6
			c2.8-2.2,5.7-3.3,8.6-3.3c1.2,0,2.2,0.2,3.1,0.7c0.9,0.5,1.6,0.9,2.2,1.5l0.9,0.9c0.3,0.3,0.6,0.5,0.7,0.6
			c0.2,0.1,0.4,0.2,0.6,0.2c0.6,0,1.1-0.4,1.4-1.2s0.6-1.5,0.7-2.3h1.1l-3,14.5H618c0-0.6,0-1.6,0-3c0-1.1-0.2-2.4-0.5-4
			c-0.3-1.6-0.8-2.9-1.6-3.9c-1.2-1.6-2.8-2.4-4.8-2.4c-1.9,0-3.6,0.6-5.1,1.7c-1.5,1.2-3.1,3.1-4.5,5.9c-1,2-1.9,4.4-2.6,7.3
			c-0.7,2.9-1.1,5.8-1.1,8.8c0,2.4,0.3,4.3,0.9,5.5c0.6,1.3,1.4,2.1,2.3,2.5s1.9,0.6,3.1,0.6c1.8,0,3.5-0.5,5.1-1.5s3.1-2.3,4.3-4
			c1.2-1.6,2.2-3.4,2.9-5.3l1.5,0.5c-1.1,3.3-2.9,6.1-5.4,8.4c-2.4,2.3-5.5,3.4-9.2,3.4C601.9,158.3,600.3,157.8,598.7,156.9z"/>
		<path d="M620.7,155.9h3.6c0.9,0,1.4-0.4,1.6-1.3l7.6-28.1c0.1-0.3,0.1-0.4,0.1-0.6c0-0.5-0.3-0.7-1-0.7H629l0.4-1.5h26.1
			l-2.2,10.8h-1.2c0-0.1,0.1-0.4,0.1-0.8c0-0.4,0-0.9,0-1.5c0-2.7-0.4-4.5-1.3-5.5c-0.9-1-2.1-1.5-3.8-1.5h-7.8
			c-0.9,0-1.4,0.4-1.6,1.3l-3.4,12.7h5.1c1.2,0,2.2-0.3,3-1c0.8-0.7,1.3-1.5,1.7-2.4s0.7-2,1.1-3.3h1.2l-4.1,15.3h-1.2
			c0.3-1.4,0.5-2.6,0.5-3.6c0-1.1-0.2-2-0.6-2.6s-1.2-0.9-2.2-0.9H634l-3.8,13.9c-0.1,0.3-0.1,0.4-0.1,0.5c0,0.5,0.3,0.8,1,0.8h8.8
			c0.8,0,1.8-0.2,2.9-0.6c1.1-0.4,2.1-1,3-1.9s1.7-2,2.4-3.2c0.7-1.3,1.3-2.4,1.8-3.5c0.4-1,0.7-1.7,0.8-2h1.1l-4,12.7h-27.6
			L620.7,155.9z"/>
		<path d="M200.3,156.3h3.6c0.9,0,1.4-0.4,1.6-1.3l7.6-28.1c0.1-0.3,0.1-0.4,0.1-0.6c0-0.5-0.3-0.7-1-0.7h-3.6l0.4-1.5h14l-0.4,1.5
			H219c-0.9,0-1.4,0.4-1.6,1.3l-7.6,28.1c-0.1,0.3-0.1,0.4-0.1,0.5c0,0.5,0.3,0.8,1,0.8h3.6l-0.4,1.5h-14L200.3,156.3z"/>
		<path d="M224.7,156.3h4.7c0.8,0,1.3-0.4,1.6-1.3l7.6-28.1c0.1-0.3,0.1-0.5,0.1-0.6c0-0.5-0.3-0.7-0.9-0.7h-1.6
			c-1.1,0-2.1,0.3-3.1,0.8s-1.8,1.1-2.4,1.7c-0.9,0.9-1.7,2-2.4,3.2c-0.7,1.3-1.3,2.5-1.7,3.6c-0.4,1.1-0.6,1.7-0.6,1.8h-1.2
			l3.8-12.7h25.9l-3,12.7h-1.2c0-0.1,0.1-0.4,0.2-0.9c0.1-0.4,0.2-1,0.3-1.8c0.1-0.8,0.1-1.5,0.1-2.3c0-2.3-0.5-4-1.4-4.9
			c-1-0.9-2.1-1.4-3.3-1.4h-1.6c-0.9,0-1.5,0.4-1.7,1.3l-7.6,28.1c0,0.1,0,0.3,0,0.5c0,0.3,0.1,0.4,0.2,0.6c0.1,0.1,0.4,0.2,0.7,0.2
			h4.7l-0.4,1.5h-16.2L224.7,156.3z"/>
		<path d="M270.6,156.2h4.7c0.8,0,1.3-0.4,1.6-1.3l7.6-28.1c0.1-0.3,0.1-0.5,0.1-0.6c0-0.5-0.3-0.7-0.9-0.7h-1.6
			c-1.1,0-2.1,0.3-3.1,0.8s-1.8,1.1-2.4,1.7c-0.9,0.9-1.7,2-2.4,3.2c-0.7,1.3-1.3,2.5-1.7,3.6c-0.4,1.1-0.6,1.7-0.6,1.8h-1.2
			l3.8-12.7h25.9l-3,12.7h-1.2c0-0.1,0.1-0.4,0.2-0.9c0.1-0.4,0.2-1,0.3-1.8c0.1-0.8,0.1-1.5,0.1-2.3c0-2.3-0.5-4-1.4-4.9
			c-1-0.9-2.1-1.4-3.3-1.4h-1.6c-0.9,0-1.5,0.4-1.7,1.3l-7.6,28.1c0,0.1,0,0.3,0,0.5c0,0.3,0.1,0.4,0.2,0.6c0.1,0.1,0.4,0.2,0.7,0.2
			h4.7l-0.4,1.5h-16.2L270.6,156.2z"/>
		<path d="M307,156.9c-1.5-1.1-2.7-2.7-3.5-4.6c-0.8-1.9-1.2-4-1.2-6.3c0-4.1,0.9-7.9,2.6-11.4c1.8-3.5,4-6.3,6.9-8.3
			c2.8-2.1,5.7-3.1,8.6-3.1c2,0,3.8,0.6,5.3,1.7c1.5,1.2,2.7,2.7,3.5,4.6c0.8,1.9,1.2,4,1.2,6.3c0,4.1-0.9,7.9-2.6,11.4
			c-1.8,3.5-4,6.3-6.9,8.3c-2.8,2-5.7,3.1-8.6,3.1C310.3,158.6,308.5,158,307,156.9z M319.4,153.7c1.8-2.2,3.3-4.8,4.3-7.8
			c0.8-2.4,1.4-4.7,1.7-7c0.3-2.3,0.4-4.2,0.4-5.9c0-2.7-0.5-4.8-1.5-6.3c-1-1.4-2.5-2.2-4.3-2.1c-2.7,0-4.9,1.1-6.7,3.3
			c-1.8,2.2-3.3,4.8-4.3,7.8c-0.8,2.4-1.4,4.7-1.7,7c-0.3,2.3-0.4,4.2-0.4,5.9c0,2.7,0.5,4.8,1.5,6.3c1,1.4,2.5,2.2,4.3,2.1
			C315.4,157,317.6,155.9,319.4,153.7z"/>
		<path d="M336.9,156.2h4.7c0.8,0,1.3-0.4,1.6-1.3l7.6-28.1c0.1-0.3,0.1-0.5,0.1-0.6c0-0.5-0.3-0.7-0.9-0.7h-1.6
			c-1.1,0-2.1,0.3-3.1,0.8s-1.8,1.1-2.4,1.7c-0.9,0.9-1.7,2-2.4,3.2c-0.7,1.3-1.3,2.5-1.7,3.6s-0.6,1.7-0.6,1.8H337l3.8-12.7h25.9
			l-3,12.7h-1.2c0-0.1,0.1-0.4,0.2-0.9c0.1-0.4,0.2-1,0.3-1.8s0.1-1.5,0.1-2.3c0-2.3-0.5-4-1.4-4.9c-1-0.9-2.1-1.4-3.3-1.4h-1.6
			c-0.9,0-1.5,0.4-1.7,1.3l-7.6,28.1c0,0.1,0,0.3,0,0.5c0,0.3,0.1,0.4,0.2,0.6c0.1,0.1,0.4,0.2,0.7,0.2h4.7l-0.4,1.5h-16.2
			L336.9,156.2z"/>
		<path d="M359.1,156.1h1.8c1.3,0,2.5-0.3,3.5-1s1.8-1.5,2.4-2.4l19.4-28.8h1.1V154c0.1,0.8,0.3,1.3,0.7,1.6s0.9,0.4,1.6,0.4h2.7
			l-0.4,1.5h-14l0.4-1.5h2.9c0.7,0,1.2-0.1,1.5-0.4c0.3-0.3,0.5-0.9,0.5-1.8v-7.9h-9.9l-3.2,4.7c-1.1,1.5-1.6,2.8-1.6,3.7
			c0,1.1,0.6,1.6,1.9,1.6h2.6l-0.4,1.5h-13.8L359.1,156.1z M374.3,144.6h8.9v-13.1L374.3,144.6z"/>
		<path d="M395.2,156.1h3.6c0.9,0,1.4-0.4,1.6-1.3l7.6-28.1c0.1-0.3,0.1-0.4,0.1-0.6c0-0.5-0.3-0.7-1-0.7h-3.6l0.4-1.5h14l-0.4,1.5
			h-3.6c-0.9,0-1.4,0.4-1.6,1.3l-7.6,28.1c-0.1,0.3-0.1,0.4-0.1,0.5c0,0.5,0.3,0.8,1,0.8h8.8c0.8,0,1.8-0.2,2.9-0.6
			c1.1-0.4,2.1-1,3-1.9s1.7-2,2.4-3.2c0.7-1.3,1.3-2.4,1.8-3.5c0.4-1,0.7-1.7,0.8-2h1.1l-4,12.7h-27.6L395.2,156.1z"/>
	</g>
	<path d="M150.8,148.6l-5.2-28.7l19,7.3C160.9,135,156.3,142.1,150.8,148.6z M108.5,154l8.3,18.6c-7.9,3-16.2,5-24.9,5.6L108.5,154z
		 M63.6,154.3L80.2,178c-8.3-0.6-16.2-2.3-23.7-4.9L63.6,154.3z M26.2,120.3l-5.1,28.5c-5.3-6.1-9.7-12.8-13.3-20.3L26.2,120.3z
		 M20.9,35.7l5.2,28.7l-19-7.3C10.8,49.4,15.4,42.2,20.9,35.7z M63.2,30.3l-8.3-18.6c7.9-3,16.2-5,24.9-5.6L63.2,30.3z M108.1,30
		L91.5,6.3c8.3,0.6,16.2,2.3,23.7,4.9L108.1,30z M145.5,64l5.1-28.5c5.3,6.1,9.7,12.8,13.3,20.3L145.5,64z M142.2,111.1l-13.9-19
		l13.8-19L169.6,92L142.2,111.1z M115.9,122.2l23.3-3.6l6,32.8l-32.8-5.9L115.9,122.2z M91.8,131.9l17.8-7.3l-2.9,18.2L91.8,131.9z
		 M85.9,134.7l19,13.8L86,176l-19-27.3L85.9,134.7z M65,142.6l-2.8-18.2l17.8,7.3L65,142.6z M32.5,118.7l23.3,3.7l3.6,23.1l-32.8,6
		L32.5,118.7z M29.5,73.3l13.9,19l-13.8,19L2.1,92.4L29.5,73.3z M55.7,62.2l-23.3,3.6l-6-32.8l32.8,5.9L55.7,62.2z M79.9,52.4
		l-17.8,7.3L65,41.5L79.9,52.4z M85.8,49.6l-19-13.8L85.7,8.3l19,27.3L85.8,49.6z M106.7,41.7l2.8,18.2l-17.8-7.3L106.7,41.7z
		 M139.2,65.6l-23.3-3.7l-3.6-23.1l32.8-6L139.2,65.6z M118,68.4l18.2,2.9l-10.7,14.8L118,68.4z M125.6,98l10.9,14.8l-18.4,3
		L125.6,98z M53.7,115.9L35.5,113l10.9-14.8L53.7,115.9z M46.1,86.3L35.2,71.5l18.2-2.8L46.1,86.3z M85.9,128l-25.3-10.4L50.1,92.3
		L60.5,67l25.3-10.5l25.3,10.4l10.5,25.3l-10.4,25.3L85.9,128z M171.7,86.3l-24-16.6l18.6-8.3C169.1,69.1,171.1,77.4,171.7,86.3z
		 M142.3,27.2l-28.7,5.2l7.3-19C128.6,17.2,135.8,21.7,142.3,27.2z M49.5,14.1l8.1,18.4l-28.5-5.1C35.3,22.2,42.2,17.7,49.5,14.1z
		 M5.1,62.6l18.8,7.3L0.2,86.5C0.6,78.3,2.4,70.1,5.1,62.6z M0,98l24,16.6l-18.6,8.3C2.6,115.2,0.6,106.9,0,98z M29.4,157.1
		l28.7-5.2l-7.3,19C43,167.2,35.9,162.6,29.4,157.1z M122.1,170.2l-8.1-18.4l28.5,5.1C136.4,162.3,129.5,166.6,122.1,170.2z
		 M166.6,121.7l-18.8-7.3l23.7-16.6C171.1,106.1,169.3,114.2,166.6,121.7z"/>
</g>
</svg>
